<svg xmlns="http://www.w3.org/2000/svg" viewBox="0 0 44.8 18.3"><g fill="#81206F"><path d="M2.5 6.9c-.7 0-1.3-.2-1.8-.7-.3-.3-.5-.6-.5-1-.1-.5-.1-1-.1-1.7s0-1.3.1-1.7c.1-.4.3-.7.5-1C1.2.3 1.8 0 2.5 0 3.8 0 4.8.8 5 2.2H3.7c-.2-.6-.5-1-1.1-1-.4 0-.6.1-.8.3-.4.4-.4.7-.4 2s0 1.5.3 1.8c.2.2.5.3.8.3.6 0 1-.4 1.1-.9H5c-.2 1.4-1.2 2.2-2.5 2.2zM9.8 6.8l-.4-1.2H7.1l-.4 1.2H5.3L7.7.1h1l2.4 6.7H9.8zM8.3 2.1l-.9 2.4h1.7l-.8-2.4zM12 6.8V.1h1.3v5.5h3v1.2H12zM19.2 6.8h-1L16 .1h1.4l1.3 4.4L20 .1h1.4l-2.2 6.7zM22.2 6.8V.1h1.3v6.7h-1.3zM27.4 6.9c-.7 0-1.3-.2-1.8-.7-.3-.3-.5-.6-.5-1-.1-.4-.1-.9-.1-1.7 0-.7 0-1.3.1-1.7.1-.4.3-.7.5-1 .4-.5 1-.8 1.8-.8 1.3 0 2.2.8 2.5 2.1h-1.3c-.1-.6-.5-.9-1.1-.9-.4 0-.6.1-.8.3-.3.3-.3.6-.3 1.9s.1 1.6.3 1.9c.2.2.5.3.8.3.6 0 1-.4 1.1-.9h1.3c-.3 1.4-1.3 2.2-2.5 2.2zM34.5 6.8V4h-2.3v2.8h-1.3V.1h1.3v2.7h2.3V.1h1.3v6.7h-1.3zM37.4 6.8V.1h1.3v6.7h-1.3zM42.1 6.9c-1 0-1.8-.2-2.4-.9l.8-.8c.4.4 1 .6 1.6.6.8 0 1.2-.3 1.2-.8 0-.2-.1-.4-.2-.6-.1-.1-.3-.2-.6-.2l-.8-.1c-.6-.1-1-.3-1.3-.6-.3-.3-.5-.8-.5-1.3 0-1.2.9-2 2.3-2 .9 0 1.6.2 2.2.8l-.8.8c-.4-.4-.9-.5-1.4-.5-.7 0-1 .4-1 .8 0 .2.1.3.2.5.1.1.3.2.6.3l.8.1c.6.1 1 .3 1.3.5.4.3.5.8.5 1.4 0 1.2-1.1 2-2.5 2z"/></g><g fill="#493745"><path d="M3.5 18.2c-1 0-1.8-.3-2.5-1-.4-.4-.6-.9-.7-1.4-.1-.5-.2-1.3-.2-2.3 0-1 .1-1.8.2-2.3.1-.5.3-1 .7-1.4.7-.7 1.5-1 2.5-1 1.8 0 3.1 1 3.4 2.9H5c-.2-.8-.7-1.3-1.5-1.3-.5 0-.9.2-1.1.5-.4.4-.5.8-.5 2.6s.1 2.2.5 2.6c.3.3.7.5 1.1.5.9 0 1.4-.5 1.5-1.3h1.8c-.2 1.9-1.6 2.9-3.3 2.9zM13.6 17.2c-.6.6-1.4 1-2.5 1-1 0-1.8-.4-2.5-1-.9-.9-.9-2.1-.9-3.7s0-2.7.9-3.7c.6-.6 1.4-1 2.5-1 1 0 1.8.4 2.5 1 .9.9.9 2.1.9 3.7s0 2.8-.9 3.7zM12.2 11c-.3-.3-.7-.5-1.1-.5-.5 0-.9.2-1.2.5-.3.4-.4.8-.4 2.6s.1 2.2.4 2.6c.3.3.7.5 1.2.5s.9-.2 1.1-.5c.3-.4.5-.8.5-2.6s-.1-2.3-.5-2.6zM22.8 18.1v-5.4L21 16.2h-1.2L18 12.7v5.4h-1.8V8.9H18l2.4 5 2.4-5h1.8v9.2h-1.8zM26.8 18.1V8.9h1.8v9.2h-1.8zM33.8 18.2c-1 0-1.8-.3-2.5-1-.4-.4-.6-.9-.7-1.4-.1-.5-.2-1.3-.2-2.3 0-1 .1-1.8.2-2.3.1-.5.3-1 .7-1.4.7-.7 1.5-1 2.5-1 1.8 0 3.1 1 3.4 2.9h-1.8c-.2-.8-.7-1.3-1.5-1.3-.5 0-.9.2-1.1.5-.4.4-.5.8-.5 2.6s.1 2.2.5 2.6c.3.3.7.5 1.1.5.9 0 1.4-.5 1.5-1.3h1.8c-.3 1.9-1.7 2.9-3.4 2.9zM41.2 18.2c-1.4 0-2.5-.3-3.4-1.2l1.2-1.2c.6.6 1.4.8 2.2.8 1.1 0 1.6-.4 1.6-1.1 0-.3-.1-.6-.3-.8-.2-.2-.4-.3-.8-.3l-1.1-.2c-.8-.1-1.4-.4-1.8-.8-.4-.4-.7-1-.7-1.8 0-1.6 1.2-2.8 3.2-2.8 1.3 0 2.2.3 3 1.1L43.2 11c-.6-.6-1.3-.6-1.9-.6-1 0-1.4.5-1.4 1.2 0 .2.1.5.3.7.2.2.5.3.9.4l1.1.2c.8.1 1.4.3 1.8.7.5.5.7 1.1.7 1.9-.1 1.7-1.5 2.7-3.5 2.7z"/></g></svg>